<?xml version="1.0" encoding="UTF-8"?>
<svg width="69px" height="46px" viewBox="0 0 69 46" version="1.1" xmlns="http://www.w3.org/2000/svg" xmlns:xlink="http://www.w3.org/1999/xlink">
    <defs>
        <path d="M11.3660518,23.9387843 C10.5135648,24.2728013 9.78118455,24.7638725 9.16890495,25.412 C7.90553321,26.74934 7.27385681,28.4996558 7.27385681,30.663 C7.27385681,32.8263441 7.90553321,34.57666 9.16890495,35.914 C9.65443894,36.4279612 10.215497,36.8431591 10.852082,37.159595 C9.89482622,37.5865329 8.77746866,37.8 7.5,37.8 C5.2199886,37.8 3.4500063,37.1200068 2.19,35.76 C0.9299937,34.3999932 0.3,32.620011 0.3,30.42 C0.3,28.219989 0.9299937,26.4400068 2.19,25.08 C3.4500063,23.7199932 5.2199886,23.04 7.5,23.04 C9.01338841,23.04 10.3020672,23.3395928 11.3660518,23.9387843 Z M1.02,0.396 L7.99577991,0.396 L7.99577991,15.2852847 C6.9991504,15.427899 6.04389357,15.6628035 5.13,15.99 C3.5099919,16.5700029 2.1800052,17.559993 1.14,18.96 L1.02,18.96 L1.02,0.396 Z M14.6511628,15.8318488 C15.52845,15.6892826 16.4383202,15.618 17.3807802,15.618 C19.4663463,15.618 21.3312957,16.0408291 22.9756843,16.8865 C24.6200729,17.7321709 26.0137716,18.8629929 27.1568223,20.279 C28.2998729,21.6950071 29.1822145,23.3174909 29.8038736,25.1465 C30.4255328,26.9755091 30.7363576,28.89299 30.7363576,30.899 C30.7363576,33.0623441 30.3954529,35.0486576 29.7136333,36.858 C29.0318136,38.6673424 28.0592325,40.2308267 26.7958607,41.5485 C25.532489,42.8661733 24.0184709,43.8888297 22.2537612,44.6165 C20.4890514,45.3441703 18.523836,45.708 16.3580559,45.708 C15.3152728,45.708 14.3326651,45.5703347 13.4102032,45.295 C13.3697952,45.2829391 13.329522,45.2707273 13.2893834,45.2583645 C13.9648071,45.0889005 14.6150117,44.8727792 15.24,44.61 C17.0000088,43.8699963 18.5099937,42.8300067 19.77,41.49 C21.0300063,40.1499933 21.9999966,38.5600092 22.68,36.72 C23.3600034,34.8799908 23.7,32.860011 23.7,30.66 C23.7,28.6199898 23.3900031,26.6700093 22.77,24.81 C22.1499969,22.9499907 21.2700057,21.3000072 20.13,19.86 C18.9899943,18.4199928 17.6000082,17.2700043 15.96,16.41 C15.5382675,16.1888476 15.1019888,15.9961306 14.6511628,15.8318488 Z M5.54083659,45 L0.3,45 L0.3,41.16 L0.42,41.16 C0.7800018,41.6800026 1.2499971,42.2099973 1.83,42.75 C2.4100029,43.2900027 3.0899961,43.7799978 3.87,44.22 C4.39521109,44.5162729 4.95215402,44.7762718 5.54083659,45 Z M39.99,0.396 L47.0698679,0.396 L47.0698679,19.1712371 L39.99,27.36 L39.99,0.396 Z M60.5616986,16.326 L68.1259584,16.326 L56.5150285,29.247 L68.4267597,45 L61.29,45 L49.41,28.98 L60.5616986,16.326 Z M47.0698679,40.6798018 L47.0698679,45 L39.99,45 L39.99,30.24 L40.11,30.24 L47.0698679,40.6798018 Z" id="path-1"></path>
        <filter x="-0.0%" y="0.0%" width="100.0%" height="100.0%" filterUnits="objectBoundingBox" id="filter-2">
            <feGaussianBlur stdDeviation="0" in="SourceGraphic"></feGaussianBlur>
        </filter>
    </defs>
    <g id="Page-1" stroke="none" stroke-width="1" fill="none" fill-rule="evenodd">
        <g id="ben-logo?" transform="translate(-327.000000, -258.000000)">
            <g id="logo-3d-transparent" transform="translate(327.000000, 258.000000)">
                <mask id="mask-3" fill="white">
                    <use xlink:href="#path-1"></use>
                </mask>
                <use id="Combined-Shape" fill="#FFFFFF" filter="url(#filter-2)" xlink:href="#path-1"></use>
            </g>
        </g>
    </g>
</svg>