<?xml version="1.0" standalone="no"?>
<!DOCTYPE svg PUBLIC "-//W3C//DTD SVG 20010904//EN"
 "http://www.w3.org/TR/2001/REC-SVG-20010904/DTD/svg10.dtd">
<svg version="1.0" xmlns="http://www.w3.org/2000/svg"
 width="1024.000000pt" height="1024.000000pt" viewBox="0 0 1024.000000 1024.000000"
 preserveAspectRatio="xMidYMid meet">
<metadata>
Created by potrace 1.11, written by Peter Selinger 2001-2013
</metadata>
<g transform="translate(0.000000,1024.000000) scale(0.100000,-0.100000)"
fill="#000000" stroke="none">
<path d="M4968 10235 c-1 -1 -23 -5 -48 -8 -105 -14 -140 -21 -235 -48 -55
-16 -107 -31 -115 -33 -24 -7 -100 -38 -193 -80 -32 -14 -62 -26 -67 -26 -6 0
-10 -3 -10 -7 0 -5 -19 -17 -43 -28 -23 -11 -79 -43 -125 -72 -45 -29 -87 -53
-92 -53 -4 0 -10 -3 -12 -8 -1 -4 -37 -32 -78 -62 -41 -30 -86 -64 -99 -75
-198 -163 -425 -388 -573 -566 -20 -24 -44 -54 -55 -65 -10 -12 -29 -36 -43
-54 -46 -62 -104 -135 -109 -140 -3 -3 -10 -12 -16 -21 -20 -33 -150 -214
-162 -227 -7 -7 -13 -19 -13 -27 0 -7 -7 -15 -15 -19 -8 -3 -15 -12 -15 -19 0
-8 -9 -22 -20 -32 -11 -10 -17 -22 -14 -26 3 -5 0 -9 -5 -9 -6 0 -11 -6 -11
-14 0 -8 -4 -16 -8 -18 -14 -5 -210 -330 -264 -438 -13 -25 -27 -49 -31 -55
-18 -22 -219 -422 -308 -610 -61 -131 -93 -200 -95 -207 -1 -5 -3 -10 -4 -13
-1 -3 -3 -8 -4 -12 -1 -5 -10 -26 -21 -48 -10 -22 -20 -49 -22 -59 -2 -11 -7
-24 -12 -30 -5 -6 -25 -51 -44 -101 -20 -49 -41 -103 -48 -120 -7 -16 -13 -32
-13 -35 -3 -10 -38 -105 -47 -125 -17 -39 -117 -318 -124 -345 -2 -8 -20 -64
-40 -125 -20 -60 -38 -117 -40 -125 -2 -8 -10 -35 -18 -60 -28 -87 -61 -195
-63 -210 -4 -21 -44 -172 -51 -190 -3 -8 -7 -22 -8 -30 -2 -8 -10 -44 -20 -80
-9 -36 -18 -75 -20 -87 -2 -12 -6 -26 -9 -31 -3 -5 -8 -24 -11 -43 -3 -19 -10
-50 -15 -69 -5 -19 -11 -46 -14 -60 -2 -14 -5 -25 -6 -25 -1 0 -3 -9 -4 -20
-2 -11 -6 -33 -9 -50 -4 -16 -9 -45 -12 -64 -3 -19 -8 -38 -11 -42 -2 -4 -7
-29 -10 -56 -3 -26 -7 -56 -10 -65 -6 -22 -11 -44 -18 -98 -3 -25 -9 -58 -12
-75 -8 -43 -12 -64 -18 -120 -4 -27 -9 -70 -12 -95 -15 -112 -18 -149 -31
-310 -15 -181 -8 -657 11 -770 3 -14 7 -45 10 -70 3 -25 13 -85 21 -135 9 -49
17 -102 20 -116 2 -14 11 -53 19 -86 9 -32 17 -68 19 -79 2 -10 9 -39 16 -64
7 -25 14 -52 16 -60 5 -23 76 -241 90 -275 7 -16 29 -73 50 -125 21 -52 60
-140 87 -195 26 -56 48 -106 48 -112 0 -6 4 -13 8 -15 5 -1 26 -37 48 -78 54
-101 135 -234 146 -238 4 -2 8 -10 8 -18 0 -8 5 -14 10 -14 6 0 10 -6 10 -13
0 -7 13 -28 30 -47 16 -19 29 -38 30 -42 0 -4 7 -16 15 -25 8 -10 41 -54 75
-97 161 -210 394 -453 580 -603 19 -15 40 -32 46 -38 6 -5 23 -19 38 -30 16
-11 33 -25 40 -30 32 -30 241 -177 298 -210 10 -5 65 -38 122 -72 86 -50 273
-145 381 -193 84 -38 139 -60 149 -60 6 0 23 -6 37 -14 26 -13 208 -76 232
-80 7 -1 17 -4 22 -8 6 -3 27 -9 48 -13 20 -4 40 -11 43 -16 3 -5 9 -7 14 -4
5 3 20 1 35 -5 14 -5 38 -12 53 -15 15 -2 59 -12 97 -20 39 -9 79 -17 90 -19
11 -2 45 -7 75 -11 30 -5 57 -9 60 -10 20 -6 162 -23 255 -32 154 -14 646 -7
766 12 13 2 45 6 70 9 25 4 57 9 70 11 13 2 40 6 59 9 19 3 46 8 60 11 14 4
39 8 55 10 46 5 315 74 360 91 22 9 40 15 40 13 0 -3 45 10 85 26 19 7 80 30
135 50 55 21 104 42 110 46 5 5 15 9 22 9 25 0 326 153 464 236 76 46 186 117
244 159 113 80 116 82 157 117 14 13 38 32 53 42 14 11 36 29 49 40 13 12 47
41 76 66 67 58 209 199 283 281 32 35 69 75 81 89 123 135 355 468 432 620 10
19 20 37 23 40 4 3 20 32 36 65 17 33 35 63 40 67 6 4 7 8 3 8 -4 0 4 20 17
45 14 25 26 47 26 50 0 4 17 43 65 152 8 17 14 38 14 47 0 9 4 16 8 16 4 0 14
21 21 48 8 26 18 54 22 62 8 15 70 218 91 295 6 22 13 47 16 55 2 8 6 22 7 30
6 39 16 84 20 90 2 3 7 29 11 56 3 27 8 51 9 54 2 3 6 24 9 46 4 22 8 49 10
60 4 22 16 107 22 159 26 230 25 706 -1 920 -4 28 -8 64 -10 80 -2 17 -6 53
-9 80 -6 51 -11 89 -22 160 -4 22 -8 51 -9 65 -2 14 -4 25 -5 25 -3 0 -14 68
-25 152 -2 12 -6 36 -11 55 -4 18 -8 42 -10 53 -2 11 -6 31 -9 45 -3 14 -8 36
-11 50 -3 14 -7 32 -9 40 -2 8 -7 29 -9 45 -9 48 -61 273 -81 348 -3 9 -7 25
-9 35 -3 9 -9 32 -15 50 -5 17 -7 32 -4 32 3 0 0 7 -7 15 -7 8 -10 15 -7 15 4
0 0 18 -8 40 -8 22 -15 44 -15 48 -1 10 -20 83 -26 102 -3 8 -5 16 -5 17 0 2
-7 22 -15 45 -9 24 -17 52 -20 63 -5 28 -135 428 -143 440 -3 6 -6 15 -7 20
-2 9 -57 163 -71 195 -3 8 -7 21 -9 28 -1 8 -10 30 -19 49 -10 20 -18 41 -20
47 -3 14 -12 38 -38 96 -11 24 -20 49 -22 55 -1 5 -7 21 -12 35 -6 14 -27 63
-46 110 -33 79 -89 210 -139 319 -54 122 -252 516 -259 519 -5 2 -9 12 -9 23
0 10 -4 19 -9 19 -5 0 -11 8 -14 18 -14 42 -162 298 -281 485 -44 70 -85 135
-91 145 -15 25 -78 116 -84 122 -4 3 -19 25 -35 49 -16 25 -33 50 -37 55 -5 6
-48 63 -96 126 -47 63 -107 140 -132 170 -25 30 -55 65 -66 79 -76 92 -339
362 -425 436 -110 95 -230 187 -340 260 -129 86 -325 193 -395 215 -22 7 -44
16 -50 20 -9 7 -108 42 -130 46 -5 1 -35 9 -65 18 -30 8 -68 18 -85 21 -16 3
-43 8 -60 11 -16 3 -41 8 -55 10 -29 6 -367 14 -372 9z"/>
</g>
</svg>
